<?xml version="1.0" encoding="utf-8"?>
<!-- Generator: Adobe Illustrator 16.0.0, SVG Export Plug-In . SVG Version: 6.00 Build 0)  -->
<!DOCTYPE svg PUBLIC "-//W3C//DTD SVG 1.1//EN" "http://www.w3.org/Graphics/SVG/1.1/DTD/svg11.dtd">
<svg version="1.1" id="Layer_1" xmlns="http://www.w3.org/2000/svg" xmlns:xlink="http://www.w3.org/1999/xlink" x="0px" y="0px"
	 width="800px" height="313.609px" viewBox="0 0 800 313.609" enable-background="new 0 0 800 313.609" xml:space="preserve">
<path fill="#0061AF" d="M105.153,71.699h-43.5V57.18c0-6.783-0.569-11.097-1.677-12.967c-1.112-1.847-2.975-2.767-5.569-2.767
	c-2.806,0-4.975,1.244-6.462,3.746c-1.389,2.499-2.091,6.29-2.091,11.386c0,6.526,0.808,11.463,2.434,14.767
	c1.561,3.308,5.975,7.308,13.26,11.981c20.842,13.483,33.969,24.539,39.39,33.171c5.404,8.634,8.117,22.556,8.117,41.774
	c0,13.962-1.522,24.26-4.568,30.884c-2.956,6.608-8.743,12.187-17.358,16.703c-8.61,4.423-18.617,6.653-30.033,6.653
	c-12.546,0-23.269-2.591-32.17-7.752c-8.837-5.162-14.61-11.744-17.377-19.729c-2.75-7.996-4.109-19.332-4.109-34.021v-12.832H46.95
	v23.841c0,7.346,0.609,12.069,1.787,14.173c1.245,2.099,3.462,3.152,6.571,3.152c3.121,0,5.41-1.343,6.895-3.996
	c1.554-2.669,2.331-6.628,2.331-11.873c0-11.528-1.441-19.077-4.319-22.64c-2.986-3.552-10.307-9.486-21.935-17.805
	c-11.652-8.384-19.368-14.484-23.16-18.271c-3.787-3.788-6.936-9.052-9.457-15.747C3.229,82.318,2,73.772,2,63.354
	C2,48.338,3.732,37.36,7.224,30.42c3.549-6.949,9.281-12.34,17.132-16.22c7.867-3.958,17.358-5.937,28.506-5.937
	c12.162,0,22.507,2.141,31.042,6.405c8.616,4.29,14.268,9.697,17.034,16.231c2.807,6.461,4.215,17.479,4.215,33.062V71.699z"/>
<polygon fill="#0061AF" points="123.759,12.376 201.885,12.376 201.885,51.601 170.617,51.601 170.617,88.777 199.876,88.777 
	199.876,126.068 170.617,126.068 170.617,169.17 205.004,169.17 205.004,208.392 123.759,208.392 "/>
<polygon fill="#0061AF" points="312.835,12.376 312.835,51.601 285.012,51.601 285.012,208.392 238.156,208.392 238.156,51.601 
	210.451,51.601 210.451,12.376 "/>
<path fill="#0061AF" d="M432.934,97.854h-46.857V63.716c0-9.926-0.52-16.111-1.561-18.524c-0.963-2.502-3.16-3.746-6.56-3.746
	c-3.86,0-6.313,1.482-7.347,4.47c-1.04,2.984-1.561,9.446-1.561,19.376v91.041c0,9.535,0.521,15.734,1.561,18.652
	c1.034,2.893,3.368,4.355,7.02,4.355c3.472,0,5.744-1.463,6.771-4.355c1.13-2.918,1.678-9.724,1.678-20.473v-24.576h46.857v7.633
	c0,20.269-1.336,34.622-3.994,43.102c-2.617,8.48-8.453,15.911-17.486,22.267c-8.971,6.381-20.077,9.57-33.287,9.57
	c-13.704,0-25.036-2.706-33.93-8.112c-8.908-5.401-14.816-12.881-17.7-22.402c-2.908-9.591-4.348-23.992-4.348-43.215V81.505
	c0-14.121,0.458-24.689,1.341-31.716c0.902-7.1,3.529-13.92,7.911-20.471c4.453-6.527,10.555-11.649,18.361-15.368
	c7.857-3.793,16.869-5.687,27.042-5.687c13.791,0,25.182,2.909,34.161,8.717c8.971,5.811,14.893,13.065,17.701,21.783
	c2.82,8.656,4.229,22.133,4.229,40.448V97.854z"/>
<path fill-rule="evenodd" clip-rule="evenodd" fill="#0061AF" d="M530.66,12.376l26.813,196.016h-47.975l-2.324-35.233h-16.805
	l-2.783,35.233h-48.523l23.811-196.016H530.66z M505.842,138.408c-2.379-22.186-4.754-49.59-7.115-82.212
	c-4.77,37.451-7.727,64.872-8.916,82.212H505.842z"/>
<path fill-rule="evenodd" clip-rule="evenodd" fill="#0061AF" d="M565.492,12.376h33.16c22.113,0,37.061,0.933,44.863,2.793
	c7.857,1.847,14.242,6.612,19.143,14.275c4.965,7.585,7.441,19.744,7.441,36.448c0,15.256-1.74,25.502-5.23,30.752
	c-3.463,5.24-10.348,8.398-20.576,9.447c9.264,2.502,15.492,5.846,18.691,10.046c3.18,4.203,5.152,8.073,5.898,11.61
	c0.82,3.482,1.217,13.127,1.217,28.948v51.696h-43.494v-65.137c0-10.492-0.801-16.987-2.357-19.501
	c-1.465-2.492-5.465-3.749-11.895-3.749v88.386h-46.861V12.376z M612.354,45.915v43.581c5.25,0,8.926-0.76,11.008-2.295
	c2.154-1.605,3.244-6.74,3.244-15.381V61.047c0-6.214-1.049-10.29-3.121-12.237C621.457,46.88,617.768,45.915,612.354,45.915z"/>
<path fill-rule="evenodd" clip-rule="evenodd" fill="#0061AF" d="M688.246,12.376h35.051c22.639,0,37.92,1.127,45.879,3.395
	c7.99,2.267,14.09,5.974,18.232,11.135c4.154,5.161,6.754,10.938,7.807,17.307c1.025,6.299,1.547,18.728,1.547,37.293v68.651
	c0,17.596-0.768,29.382-2.334,35.35c-1.482,5.9-4.109,10.537-7.906,13.918c-3.773,3.322-8.449,5.657-14.02,7.037
	c-5.568,1.29-13.939,1.931-25.152,1.931h-59.104V12.376z M735.104,45.915v128.946c6.764,0,10.893-1.468,12.484-4.355
	c1.549-2.996,2.316-11.029,2.316-24.092v-76.17c0-8.872-0.248-14.569-0.768-17.059c-0.533-2.502-1.721-4.327-3.572-5.451
	C743.699,46.516,740.221,45.915,735.104,45.915z"/>
<path fill="#F04E23" d="M698.516,269.248c0-24.503,21.988-44.367,49.137-44.367c27.121,0,49.109,19.864,49.109,44.367
	c0,24.506-21.988,44.361-49.109,44.361C720.504,313.609,698.516,293.753,698.516,269.248z"/>
<path fill="#F99D1C" d="M587.537,269.248c0-24.503,22.002-44.367,49.127-44.367c27.129,0,49.119,19.864,49.119,44.367
	c0,24.506-21.99,44.361-49.119,44.361C609.539,313.609,587.537,293.753,587.537,269.248z"/>
<path fill="#0061AF" d="M476.557,269.248c0-24.503,21.986-44.367,49.119-44.367c27.139,0,49.123,19.864,49.123,44.367
	c0,24.506-21.984,44.361-49.123,44.361C498.543,313.609,476.557,293.753,476.557,269.248z"/>
</svg>
